<svg xmlns="http://www.w3.org/2000/svg" version="1.1" xmlns:xlink="http://www.w3.org/1999/xlink" xmlns:svgjs="http://svgjs.dev/svgjs" width="1440" height="560" preserveAspectRatio="none" viewBox="0 0 1440 560"><g mask="url(&quot;#SvgjsMask1154&quot;)" fill="none"><rect width="1440" height="560" x="0" y="0" fill="url(&quot;#SvgjsLinearGradient1155&quot;)"></rect><path d="M -205.07672460213433,84 C -163.88,131.4 -81.48,301.4 0.9232753978656576,321 C 83.32,340.6 124.52,165.4 206.92327539786567,182 C 289.32,198.6 330.52,399.2 412.92327539786567,404 C 495.32,408.8 536.52,220.8 618.9232753978656,206 C 701.32,191.2 742.52,349.6 824.9232753978656,330 C 907.32,310.4 948.52,108.4 1030.9232753978656,108 C 1113.32,107.6 1154.52,296.6 1236.9232753978656,328 C 1319.32,359.4 1402.31,270.8 1442.9232753978656,265 C 1483.54,259.2 1440.58,292.2 1440,299" stroke="rgba(8, 255, 16, 1)" stroke-width="2" style="--darkreader-inline-stroke: #1fff26;" data-darkreader-inline-stroke=""></path><path d="M -88.09947660876293,305 C -46.9,294 35.5,250 117.90052339123707,250 C 200.3,250 241.5,332.8 323.9005233912371,305 C 406.3,277.2 447.5,83.6 529.9005233912371,111 C 612.3,138.4 653.5,423 735.9005233912371,442 C 818.3,461 859.5,219.4 941.9005233912371,206 C 1024.3,192.6 1065.5,372 1147.9005233912371,375 C 1230.3,378 1271.5,219.6 1353.9005233912371,221 C 1436.3,222.4 1542.68,377.4 1559.9005233912371,382 C 1577.12,386.6 1463.98,271.6 1440,244" stroke="rgba(8, 255, 16, 1)" stroke-width="2" style="--darkreader-inline-stroke: #1fff26;" data-darkreader-inline-stroke=""></path><path d="M -373.63177605194426,281 C -332.43,245.4 -250.03,94.8 -167.63177605194426,103 C -85.23,111.2 -44.03,291 38.36822394805574,322 C 120.77,353 161.97,263.2 244.36822394805574,258 C 326.77,252.8 367.97,292.4 450.36822394805574,296 C 532.77,299.6 573.97,259.6 656.3682239480557,276 C 738.77,292.4 779.97,404 862.3682239480557,378 C 944.77,352 985.97,160.8 1068.3682239480559,146 C 1150.77,131.2 1200.04,303.4 1274.3682239480559,304 C 1348.69,304.6 1406.87,180 1440,149" stroke="rgba(8, 255, 86, 1)" stroke-width="2" style="--darkreader-inline-stroke: #1fff66;" data-darkreader-inline-stroke=""></path><path d="M -341.17699275171094,405 C -299.98,378.6 -217.58,284.6 -135.17699275171094,273 C -52.78,261.4 -11.58,381.4 70.82300724828906,347 C 153.22,312.6 194.42,76.4 276.82300724828906,101 C 359.22,125.6 400.42,458.4 482.82300724828906,470 C 565.22,481.6 606.42,188.8 688.8230072482891,159 C 771.22,129.2 812.42,308.4 894.8230072482891,321 C 977.22,333.6 1018.42,194 1100.823007248289,222 C 1183.22,250 1238.99,460.2 1306.823007248289,461 C 1374.66,461.8 1413.36,273 1440,226" stroke="rgba(8, 255, 16, 1)" stroke-width="2" style="--darkreader-inline-stroke: #1fff26;" data-darkreader-inline-stroke=""></path><path d="M -67.10453524097443,215 C -25.9,264.2 56.5,454.8 138.89546475902557,461 C 221.3,467.2 262.5,248.8 344.8954647590256,246 C 427.3,243.2 468.5,462.2 550.8954647590256,447 C 633.3,431.8 674.5,193.4 756.8954647590256,170 C 839.3,146.6 880.5,344.8 962.8954647590256,330 C 1045.3,315.2 1086.5,77.4 1168.8954647590256,96 C 1251.3,114.6 1292.5,391.6 1374.8954647590256,423 C 1457.3,454.4 1567.87,266.6 1580.8954647590256,253 C 1593.92,239.4 1468.18,334.6 1440,355" stroke="rgba(8, 255, 16, 1)" stroke-width="2" style="--darkreader-inline-stroke: #1fff26;" data-darkreader-inline-stroke=""></path><path d="M -331.56949442328886,447 C -290.37,377.2 -207.97,129.6 -125.56949442328887,98 C -43.17,66.4 -1.97,279.6 80.43050557671113,289 C 162.83,298.4 204.03,113 286.43050557671114,145 C 368.83,177 410.03,437.4 492.43050557671114,449 C 574.83,460.6 616.03,214.6 698.4305055767111,203 C 780.83,191.4 822.03,395 904.4305055767111,391 C 986.83,387 1028.03,192.8 1110.430505576711,183 C 1192.83,173.2 1250.52,323 1316.430505576711,342 C 1382.34,361 1415.29,290.8 1440,278" stroke="rgba(8, 255, 86, 1)" stroke-width="2" style="--darkreader-inline-stroke: #1fff66;" data-darkreader-inline-stroke=""></path></g><defs><mask id="SvgjsMask1154"><rect width="1440" height="560" fill="#ffffff" style="--darkreader-inline-fill: #e8e6e3;" data-darkreader-inline-fill=""></rect></mask><linearGradient x1="15.28%" y1="-39.29%" x2="84.72%" y2="139.29%" gradientUnits="userSpaceOnUse" id="SvgjsLinearGradient1155"><stop stop-color="#0e2a47" offset="0" style="--darkreader-inline-stopcolor: #0b2239;" data-darkreader-inline-stopcolor=""></stop><stop stop-color="rgba(251, 251, 255, 1)" offset="1" style="--darkreader-inline-stopcolor: #191b1c;" data-darkreader-inline-stopcolor=""></stop></linearGradient></defs></svg>